<svg xmlns="http://www.w3.org/2000/svg" xmlns:xlink="http://www.w3.org/1999/xlink" width="500" zoomAndPan="magnify" viewBox="0 0 375 374.999991" height="500" preserveAspectRatio="xMidYMid meet" version="1.0"><defs><clipPath id="7f29541fd6"><path d="M 0 68 L 204 68 L 204 327 L 0 327 Z M 0 68 " clip-rule="nonzero"/></clipPath><clipPath id="fd7e6fb1a4"><path d="M 32 3 L 235.5 3 L 235.5 262 L 32 262 Z M 32 3 " clip-rule="nonzero"/></clipPath><clipPath id="7afd7f5ad8"><path d="M 206 199.179688 L 365.054688 199.179688 L 365.054688 360 L 206 360 Z M 206 199.179688 " clip-rule="nonzero"/></clipPath><clipPath id="e45d31d5bc"><path d="M 197.054688 357 L 250 357 L 250 361.179688 L 197.054688 361.179688 Z M 197.054688 357 " clip-rule="nonzero"/></clipPath></defs><g clip-path="url(#7f29541fd6)"><path fill="#000000" d="M 169.984375 262.648438 C 169.984375 230.507812 169.984375 198.863281 169.984375 167.210938 C 169.578125 167.058594 169.167969 166.902344 168.761719 166.742188 C 151.929688 187.871094 135.089844 208.992188 117.644531 230.890625 C 111.4375 223.15625 105.488281 215.753906 99.011719 207.691406 C 67.257812 247.582031 35.761719 287.144531 4 327.042969 C 2.550781 325.882812 1.390625 324.953125 0.015625 323.851562 C 67.617188 238.882812 134.96875 154.222656 203.179688 68.484375 C 203.179688 134.019531 203.179688 198.175781 203.179688 262.648438 C 192.28125 262.648438 181.664062 262.648438 169.984375 262.648438 Z M 169.984375 262.648438 " fill-opacity="1" fill-rule="nonzero"/></g><g clip-path="url(#fd7e6fb1a4)"><path fill="#000000" d="M 32.125 69.371094 C 56.796875 100.363281 80.695312 130.390625 105.128906 161.089844 C 106.984375 158.859375 108.617188 156.960938 110.171875 155.007812 C 149.355469 105.734375 188.523438 56.429688 227.773438 7.199219 C 229.503906 5.03125 231.140625 0.0273438 235.464844 5.730469 C 186.210938 67.636719 136.925781 129.589844 87.066406 192.261719 C 80.121094 183.660156 73.503906 175.457031 66.113281 166.3125 C 65.832031 168.714844 65.53125 170.09375 65.53125 171.476562 C 65.5 185.761719 65.675781 200.050781 65.382812 214.328125 C 65.320312 217.265625 64.214844 220.683594 62.4375 222.996094 C 52.796875 235.585938 42.792969 247.898438 32.117188 261.304688 C 32.125 196.980469 32.125 133.871094 32.125 69.371094 Z M 32.125 69.371094 " fill-opacity="1" fill-rule="nonzero"/></g><g clip-path="url(#7afd7f5ad8)"><path fill="#fe4f70" d="M 362.257812 348.898438 C 359.300781 350.105469 356.914062 351.679688 354.367188 352.015625 C 344.125 353.363281 338.59375 348.484375 338.285156 337.9375 C 338.074219 330.539062 338.332031 323.132812 338.199219 315.738281 C 337.980469 303.234375 333.875 292.320312 324.152344 284.113281 C 316.8125 277.917969 308.140625 274.855469 298.457031 274.488281 C 300.140625 273.871094 301.851562 273.601562 303.503906 273.152344 C 317.667969 269.292969 327.449219 260.65625 331.09375 246.210938 C 334.652344 232.109375 330.3125 220.179688 319.246094 210.933594 C 309.257812 202.582031 297.25 199.421875 284.546875 199.339844 C 263.121094 199.195312 241.691406 199.222656 220.257812 199.230469 L 220.257812 199.222656 L 206.863281 199.222656 L 206.863281 359.492188 L 238.585938 359.492188 C 238.570312 346.84375 238.566406 346.570312 238.570312 346.269531 C 238.757812 324.890625 238.652344 303.511719 238.667969 282.132812 C 238.667969 280.832031 238.84375 279.535156 238.9375 278.316406 C 256.472656 276.648438 268.660156 287.246094 273.730469 308.148438 L 277.964844 308.148438 L 277.964844 242.898438 L 273.515625 242.898438 C 270.257812 262.480469 254.898438 275.523438 239.066406 272.339844 C 238.953125 271.988281 238.730469 271.613281 238.730469 271.230469 C 238.699219 249.855469 238.703125 228.472656 238.628906 207.097656 C 238.621094 204.667969 239.71875 204.089844 241.878906 204.113281 C 248.578125 204.191406 255.277344 204.0625 261.964844 204.160156 C 269.742188 204.28125 277.550781 204.183594 285.289062 204.878906 C 292.53125 205.527344 297.425781 209.757812 298.863281 217.109375 C 299.804688 221.921875 300.769531 226.867188 300.664062 231.722656 C 300.453125 241.261719 299.890625 250.835938 298.71875 260.300781 C 298.046875 265.714844 294.15625 269.320312 288.671875 270.421875 C 286.175781 270.925781 284.972656 271.582031 284.945312 274.5 C 284.914062 277.597656 286.722656 277.636719 288.773438 278.066406 C 300.171875 280.472656 305.484375 286.394531 306.214844 298.136719 C 306.683594 305.644531 306.496094 313.199219 306.738281 320.722656 C 307.511719 344.628906 324.832031 360.714844 348.398438 359.421875 C 354.890625 359.0625 360.417969 356.609375 365.007812 351.445312 C 363.734375 350.261719 362.769531 349.375 362.257812 348.898438 Z M 362.257812 348.898438 " fill-opacity="1" fill-rule="nonzero"/></g><g clip-path="url(#e45d31d5bc)"><path fill="#fe4f70" d="M 197.082031 357.78125 L 249.179688 357.78125 L 249.179688 361.207031 L 197.082031 361.207031 Z M 197.082031 357.78125 " fill-opacity="1" fill-rule="nonzero"/></g></svg>